<?xml version="1.0" standalone="no"?>
<svg xmlns:xlink="http://www.w3.org/1999/xlink" id="wave" style="transform:rotate(180deg); transition: 0.3s" viewBox="0 0 1440 100" version="1.1" xmlns="http://www.w3.org/2000/svg"><defs><linearGradient id="sw-gradient-0" x1="0" x2="0" y1="1" y2="0"><stop stop-color="rgba(255, 249, 234, 1)" offset="0%"/><stop stop-color="rgba(255, 249, 234, 1)" offset="100%"/></linearGradient></defs><path style="transform:translate(0, 0px); opacity:1" fill="url(#sw-gradient-0)" d="M0,40L26.7,45C53.3,50,107,60,160,56.7C213.3,53,267,37,320,30C373.3,23,427,27,480,35C533.3,43,587,57,640,63.3C693.3,70,747,70,800,60C853.3,50,907,30,960,18.3C1013.3,7,1067,3,1120,16.7C1173.3,30,1227,60,1280,66.7C1333.3,73,1387,57,1440,55C1493.3,53,1547,67,1600,60C1653.3,53,1707,27,1760,26.7C1813.3,27,1867,53,1920,65C1973.3,77,2027,73,2080,73.3C2133.3,73,2187,77,2240,73.3C2293.3,70,2347,60,2400,58.3C2453.3,57,2507,63,2560,63.3C2613.3,63,2667,57,2720,56.7C2773.3,57,2827,63,2880,61.7C2933.3,60,2987,50,3040,53.3C3093.3,57,3147,73,3200,81.7C3253.3,90,3307,90,3360,78.3C3413.3,67,3467,43,3520,36.7C3573.3,30,3627,40,3680,50C3733.3,60,3787,70,3813,75L3840,80L3840,100L3813.3,100C3786.7,100,3733,100,3680,100C3626.7,100,3573,100,3520,100C3466.7,100,3413,100,3360,100C3306.7,100,3253,100,3200,100C3146.7,100,3093,100,3040,100C2986.7,100,2933,100,2880,100C2826.7,100,2773,100,2720,100C2666.7,100,2613,100,2560,100C2506.7,100,2453,100,2400,100C2346.7,100,2293,100,2240,100C2186.7,100,2133,100,2080,100C2026.7,100,1973,100,1920,100C1866.7,100,1813,100,1760,100C1706.7,100,1653,100,1600,100C1546.7,100,1493,100,1440,100C1386.7,100,1333,100,1280,100C1226.7,100,1173,100,1120,100C1066.7,100,1013,100,960,100C906.7,100,853,100,800,100C746.7,100,693,100,640,100C586.7,100,533,100,480,100C426.7,100,373,100,320,100C266.7,100,213,100,160,100C106.7,100,53,100,27,100L0,100Z"/></svg>